<?xml version="1.0" encoding="utf-8"?>
<!-- Generator: Adobe Illustrator 24.3.0, SVG Export Plug-In . SVG Version: 6.00 Build 0)  -->
<svg version="1.1" id="レイヤー_1" xmlns="http://www.w3.org/2000/svg" xmlns:xlink="http://www.w3.org/1999/xlink" x="0px"
	 y="0px" viewBox="0 0 1366 768" style="enable-background:new 0 0 1366 768;" xml:space="preserve">
<style type="text/css">
	.st0{fill:#FFFFFF;stroke:#231815;stroke-width:4;stroke-miterlimit:10;}
	.st1{fill:#231815;}
	.st2{fill:#FFFFFF;}
	.st3{fill:#FFFFFF;stroke:#231815;stroke-width:3;stroke-miterlimit:10;}
	.st4{fill:none;stroke:#231815;stroke-width:3;stroke-miterlimit:10;}
	.st5{fill:none;stroke:#231815;stroke-width:10;stroke-miterlimit:10;}
	.st6{fill:none;stroke:#231815;stroke-width:10;stroke-linecap:square;stroke-miterlimit:10;}
	.st7{fill:none;stroke:#231815;stroke-width:10;stroke-linecap:square;stroke-linejoin:bevel;stroke-miterlimit:10;}
	.st8{fill:none;stroke:#231815;stroke-width:10;stroke-linejoin:bevel;stroke-miterlimit:10;}
	.st9{display:none;fill:none;stroke:#231815;stroke-width:3;stroke-miterlimit:10;}
	.st10{fill:none;stroke:#009844;stroke-width:10;stroke-miterlimit:10;}
</style>
<circle class="st0" cx="972.7" cy="394.55" r="141.55"/>
<circle class="st1" cx="972.7" cy="394.75" r="133.52"/>
<polygon class="st2" points="974.56,528.72 907.22,397.68 974.56,266.64 1041.91,397.68 "/>
<polygon class="st3" points="974.99,517.02 913.97,398.3 974.99,279.57 1036.01,398.3 "/>
<polygon class="st4" points="974.99,334.92 960.77,307.25 974.99,279.57 989.21,307.25 "/>
<circle class="st1" cx="974.06" cy="401.85" r="11.33"/>
<line class="st4" x1="921.9" y1="382.88" x2="983.33" y2="500.79"/>
<line class="st4" x1="974.06" y1="401.85" x2="974.99" y2="334.92"/>
<line class="st5" x1="211.94" y1="254.75" x2="211.94" y2="533.17"/>
<path class="st5" d="M279.86,537.22"/>
<path class="st5" d="M328.43,425.03"/>
<line class="st5" x1="246.9" y1="305.33" x2="245.74" y2="261.38"/>
<line class="st5" x1="334.22" y1="301.86" x2="334.22" y2="260.8"/>
<line class="st6" x1="245.74" y1="261.38" x2="334.22" y2="260.8"/>
<path class="st7" d="M467.13,393.57c-0.37-56.37-32.82-107.92-83.57-132.77c0,89.16,0,178.33,0,267.49
	C434.93,503.13,467.5,450.63,467.13,393.57z"/>
<polyline class="st8" points="471.24,532.92 531.06,256.17 579.01,532.92 "/>
<path class="st5" d="M627.42,528.29"/>
<path class="st5" d="M593.17,460.7"/>
<line class="st9" x1="927.22" y1="185.17" x2="917.93" y2="234.26"/>
<line class="st9" x1="935.35" y1="197.88" x2="927.24" y2="185.21"/>
<path class="st9" d="M917.93,234.43l-8.11-12.67L917.93,234.43z"/>
<polyline class="st8" points="588.82,450.62 630.97,530.3 676.58,254.13 718.54,334.56 "/>
<path class="st10" d="M729.68,341.32"/>
<path class="st10" d="M687.53,261.64"/>
<path class="st8" d="M345.1,529.24l-21.97-114.5c-50.74,114.5-50.74,114.5-50.74,114.5l-21.97-114.5l21.97,114.5"/>
<g>
</g>
<g>
</g>
<g>
</g>
<g>
</g>
<g>
</g>
<g>
</g>
<g>
</g>
<g>
</g>
<g>
</g>
<g>
</g>
<g>
</g>
<g>
</g>
<g>
</g>
<g>
</g>
<g>
</g>
</svg>
